<svg width="200" height="165" viewBox="0 0 200 165" fill="none" xmlns="http://www.w3.org/2000/svg">
<path d="M62.0644 133.773C65.0842 133.949 75.1134 141.399 79.7505 145.102L193.953 88.5511C193.617 84.9332 182.049 79.0195 176.308 76.5149C168.226 77.0855 96.778 114.925 62.0644 133.773Z" fill="#FFF3EE"/>
<path d="M43.2756 110.899C44.5801 110.857 61.7727 120.5 62.7587 121.859C98.5527 103.429 171.508 66.269 176.975 65.0725C176.588 62.6827 164.533 56.8116 158.553 54.1748C153.208 54.9049 79.4743 92.2954 43.2756 110.899Z" fill="#FFF3EE"/>
<path d="M79.0562 157.016C80.1721 154.793 81.8733 149.297 79.7505 145.102C75.1134 141.399 65.0842 133.949 62.0644 133.773C61.3489 136.572 60.0542 142.675 60.5993 144.696C66.2011 148.77 77.735 156.939 79.0562 157.016Z" fill="#FFF3EE"/>
<path d="M42.6294 121.988C43.1021 123.625 55.783 130.527 62.0644 133.773C63.567 130.736 63.1534 124.565 62.7587 121.859C61.7727 120.5 44.5801 110.857 43.2756 110.899C41.9711 110.942 42.0385 119.941 42.6294 121.988Z" fill="#FFF3EE"/>
<path d="M43.2756 110.899C42.971 108.001 42.6683 101.821 43.8943 100.283C44.5385 97.7636 31.7238 90.6173 25.2359 87.359C23.5491 88.6811 24.0748 95.7741 24.5485 99.1553C24.6162 101.242 37.0614 107.854 43.2756 110.899Z" fill="#FFF3EE"/>
<path d="M6.80771 76.579C7.25843 78.5938 19.281 84.6052 25.2359 87.359C26.0924 84.1736 27.4206 77.4963 25.8822 76.2703C24.3437 75.0444 12.9648 68.4157 7.46768 65.2546C4.67891 66.3941 6.2443 74.0606 6.80771 76.579Z" fill="#FFF3EE"/>
<path d="M79.7505 145.102C81.8733 149.297 80.1721 154.793 79.0562 157.016C81.4439 158.289 156.19 119.767 193.265 100.347C194.952 99.0253 194.426 91.9323 193.953 88.5511L79.7505 145.102Z" fill="#FFF3EE"/>
<path d="M62.0644 133.773C96.778 114.925 168.226 77.0855 176.308 76.5149C178.277 73.5996 177.573 67.6719 176.975 65.0725C171.508 66.269 98.5527 103.429 62.7587 121.859C63.1534 124.565 63.567 130.736 62.0644 133.773Z" fill="#FFF3EE"/>
<path d="M43.2756 110.899C79.4743 92.2954 153.208 54.9049 158.553 54.1748C159.99 52.27 159.619 45.3597 159.255 42.1426C152.621 42.2295 45.4268 98.3599 43.8943 100.283C42.6683 101.821 42.971 108.001 43.2756 110.899Z" fill="#FFF3EE"/>
<path d="M25.2359 87.359C61.6286 68.1351 135.659 29.8544 140.639 30.5233C143.13 28.3961 142.094 22.4804 141.264 19.7885C137.017 19.541 62.5733 57.3399 25.8822 76.2703C27.4206 77.4963 26.0924 84.1736 25.2359 87.359Z" fill="#FFF3EE"/>
<path d="M79.0562 157.016C80.1721 154.793 81.8733 149.297 79.7505 145.102M79.0562 157.016C77.735 156.939 66.2011 148.77 60.5993 144.696C60.0542 142.675 61.3489 136.572 62.0644 133.773M79.0562 157.016C81.4439 158.289 156.19 119.767 193.265 100.347C194.952 99.0253 194.426 91.9323 193.953 88.5511M79.7505 145.102C75.1134 141.399 65.0842 133.949 62.0644 133.773M79.7505 145.102L193.953 88.5511M62.0644 133.773C96.778 114.925 168.226 77.0855 176.308 76.5149M62.0644 133.773C55.783 130.527 43.1021 123.625 42.6294 121.988C42.0385 119.941 41.9711 110.942 43.2756 110.899M62.0644 133.773C63.567 130.736 63.1534 124.565 62.7587 121.859M193.953 88.5511C193.617 84.9332 182.049 79.0195 176.308 76.5149M176.308 76.5149C178.277 73.5996 177.573 67.6719 176.975 65.0725M43.2756 110.899C44.5801 110.857 61.7727 120.5 62.7587 121.859M43.2756 110.899C79.4743 92.2954 153.208 54.9049 158.553 54.1748M43.2756 110.899C42.971 108.001 42.6683 101.821 43.8943 100.283M43.2756 110.899C37.0614 107.854 24.6162 101.242 24.5485 99.1553C24.0748 95.7741 23.5491 88.6811 25.2359 87.359M62.7587 121.859C98.5527 103.429 171.508 66.269 176.975 65.0725M176.975 65.0725C176.588 62.6827 164.533 56.8116 158.553 54.1748M158.553 54.1748C159.99 52.27 159.619 45.3597 159.255 42.1426M43.8943 100.283C45.4268 98.3599 152.621 42.2295 159.255 42.1426M43.8943 100.283C44.5385 97.7636 31.7238 90.6173 25.2359 87.359M159.255 42.1426C159.113 40.6195 146.785 33.7618 140.639 30.5233M25.2359 87.359C61.6286 68.1351 135.659 29.8544 140.639 30.5233M25.2359 87.359C19.281 84.6052 7.25843 78.5938 6.80771 76.579C6.2443 74.0606 4.67891 66.3941 7.46768 65.2546M25.2359 87.359C26.0924 84.1736 27.4206 77.4963 25.8822 76.2703M140.639 30.5233C143.13 28.3961 142.094 22.4804 141.264 19.7885M7.46768 65.2546C12.9648 68.4157 24.3437 75.0444 25.8822 76.2703M7.46768 65.2546C44.1517 45.7714 118.458 6.95447 122.211 7.55194C128.29 10.313 140.611 16.6258 141.264 19.7885M25.8822 76.2703C62.5733 57.3399 137.017 19.541 141.264 19.7885" stroke="#FF9E99" stroke-width="1.1"/>
<path d="M62.0644 133.773C65.0842 133.949 75.1134 141.399 79.7505 145.102L193.953 88.5511C193.617 84.9332 182.049 79.0195 176.308 76.5149C168.226 77.0855 96.778 114.925 62.0644 133.773Z" fill="white"/>
<path d="M43.2756 110.899C44.5801 110.857 61.7727 120.5 62.7587 121.859C98.5527 103.429 171.508 66.269 176.975 65.0725C176.588 62.6827 164.533 56.8116 158.553 54.1748C153.208 54.9049 79.4743 92.2954 43.2756 110.899Z" fill="white"/>
<path d="M79.0562 157.016C80.1721 154.793 81.8733 149.297 79.7505 145.102C75.1134 141.399 65.0842 133.949 62.0644 133.773C61.3489 136.572 60.0542 142.675 60.5993 144.696C66.2011 148.77 77.735 156.939 79.0562 157.016Z" fill="white"/>
<path d="M42.6294 121.988C43.1021 123.625 55.783 130.527 62.0644 133.773C63.567 130.736 63.1534 124.565 62.7587 121.859C61.7727 120.5 44.5801 110.857 43.2756 110.899C41.9711 110.942 42.0385 119.941 42.6294 121.988Z" fill="white"/>
<path d="M43.2756 110.899C42.971 108.001 42.6683 101.821 43.8943 100.283C44.5385 97.7636 31.7238 90.6173 25.2359 87.359C23.5491 88.6811 24.0748 95.7741 24.5485 99.1553C24.6162 101.242 37.0614 107.854 43.2756 110.899Z" fill="white"/>
<path d="M6.80771 76.579C7.25843 78.5938 19.281 84.6052 25.2359 87.359C26.0924 84.1736 27.4206 77.4963 25.8822 76.2703C24.3437 75.0444 12.9648 68.4157 7.46768 65.2546C4.67891 66.3941 6.2443 74.0606 6.80771 76.579Z" fill="white"/>
<path d="M79.0562 157.016C80.1721 154.793 81.8733 149.297 79.7505 145.102M79.0562 157.016C77.735 156.939 66.2011 148.77 60.5993 144.696C60.0542 142.675 61.3489 136.572 62.0644 133.773M79.0562 157.016C81.4439 158.289 156.19 119.767 193.265 100.347C194.952 99.0253 194.426 91.9323 193.953 88.5511M79.7505 145.102C75.1134 141.399 65.0842 133.949 62.0644 133.773M79.7505 145.102L193.953 88.5511M62.0644 133.773C96.778 114.925 168.226 77.0855 176.308 76.5149M62.0644 133.773C55.783 130.527 43.1021 123.625 42.6294 121.988C42.0385 119.941 41.9711 110.942 43.2756 110.899M62.0644 133.773C63.567 130.736 63.1534 124.565 62.7587 121.859M193.953 88.5511C193.617 84.9332 182.049 79.0195 176.308 76.5149M176.308 76.5149C178.277 73.5996 177.573 67.6719 176.975 65.0725M43.2756 110.899C44.5801 110.857 61.7727 120.5 62.7587 121.859M43.2756 110.899C79.4743 92.2954 153.208 54.9049 158.553 54.1748M43.2756 110.899C42.971 108.001 42.6683 101.821 43.8943 100.283M43.2756 110.899C37.0614 107.854 24.6162 101.242 24.5485 99.1553C24.0748 95.7741 23.5491 88.6811 25.2359 87.359M62.7587 121.859C98.5527 103.429 171.508 66.269 176.975 65.0725M176.975 65.0725C176.588 62.6827 164.533 56.8116 158.553 54.1748M158.553 54.1748C159.99 52.27 159.619 45.3597 159.255 42.1426M43.8943 100.283C45.4268 98.3599 152.621 42.2295 159.255 42.1426M43.8943 100.283C44.5385 97.7636 31.7238 90.6173 25.2359 87.359M159.255 42.1426C159.113 40.6195 146.785 33.7618 140.639 30.5233M25.2359 87.359C61.6286 68.1351 135.659 29.8544 140.639 30.5233M25.2359 87.359C19.281 84.6052 7.25843 78.5938 6.80771 76.579C6.2443 74.0606 4.67891 66.3941 7.46768 65.2546M25.2359 87.359C26.0924 84.1736 27.4206 77.4963 25.8822 76.2703M140.639 30.5233C143.13 28.3961 142.094 22.4804 141.264 19.7885M7.46768 65.2546C12.9648 68.4157 24.3437 75.0444 25.8822 76.2703M7.46768 65.2546C44.1517 45.7714 118.458 6.95447 122.211 7.55194C128.29 10.313 140.611 16.6258 141.264 19.7885M25.8822 76.2703C62.5733 57.3399 137.017 19.541 141.264 19.7885" stroke="#FF9E99" stroke-width="1.1"/>
</svg>
